<svg width="208" height="32" viewBox="0 0 208 32" fill="none" xmlns="http://www.w3.org/2000/svg"><path d="M15.0436 12.5477L10.8159 20.9809C13.8571 19.1778 17.3537 18.2412 17.5088 18.2018C9.36235 22.8812 6.43189 30.1464 6.43189 30.1464H0.0134277L13.0534 4.13537C13.0534 4.13291 13.0534 4.13168 13.0547 4.13168C13.8054 2.55876 14.699 1.85229 15.9999 1.85229C17.5433 1.85229 18.31 2.71752 18.9451 4.13168C18.9464 4.13168 18.9464 4.13291 18.9464 4.13537L24.5685 15.3489C22.6387 15.8424 20.8922 16.496 19.3144 17.2529L16.955 12.5489C16.955 12.5489 16.955 12.5477 16.9537 12.5477C16.7482 12.0886 16.4996 11.8092 15.9987 11.8092C15.5777 11.8092 15.2873 12.0381 15.0448 12.5477C15.0436 12.5464 15.0436 12.5477 15.0436 12.5477Z" fill="#fff"/><path d="M25.7033 17.616C23.6504 19.1717 22.1218 20.8664 21.4965 21.6061L22.9894 24.5846H17.9987C23.3304 16.1944 31.3488 14.3852 31.3488 14.3852C29.6171 14.5747 15.4325 16.5378 10.4294 30.1477H31.9864L25.7033 17.616Z" fill="#fff"/><path d="M51.72 23.5L57.66 9.34H60.98L66.86 23.5H63.06L61.96 20.72H56.48L55.44 23.5H51.72ZM57.46 17.98H61.02L59.26 13.12L57.46 17.98ZM68.0303 23.5V9.34H73.2303C74.9103 9.34 76.2503 9.68667 77.2503 10.38C78.2636 11.06 78.7703 12.1667 78.7703 13.7C78.7703 14.74 78.497 15.6067 77.9503 16.3C77.417 16.9933 76.7436 17.48 75.9303 17.76C75.1303 18.0267 74.2036 18.16 73.1503 18.16H71.4503V23.5H68.0303ZM71.4503 15.44H72.8903C74.5303 15.44 75.3503 14.8667 75.3503 13.72C75.3503 12.64 74.5503 12.1 72.9503 12.1H71.4503V15.44ZM78.8127 23.5L83.7727 16.02L79.2127 9.34H83.3327L85.9727 13.74L88.5727 9.34H92.5527L88.0727 16.02L93.1927 23.5H88.9727L85.8727 18.5L82.8927 23.5H78.8127ZM102.135 23.5V12.26H98.1352V9.34H109.555V12.26H105.555V23.5H102.135ZM111.116 23.5V9.34H116.316C117.996 9.34 119.336 9.68667 120.336 10.38C121.35 11.06 121.856 12.1667 121.856 13.7C121.856 14.74 121.583 15.6067 121.036 16.3C120.503 16.9933 119.83 17.48 119.016 17.76C118.216 18.0267 117.29 18.16 116.236 18.16H114.536V23.5H111.116ZM114.536 15.44H115.976C117.616 15.44 118.436 14.8667 118.436 13.72C118.436 12.64 117.636 12.1 116.036 12.1H114.536V15.44ZM120.978 23.5L126.918 9.34H130.238L136.118 23.5H132.318L131.218 20.72H125.738L124.698 23.5H120.978ZM126.718 17.98H130.278L128.518 13.12L126.718 17.98ZM137.288 23.5V9.34H140.708V14.7H146.228V9.34H149.648V23.5H146.228V17.58H140.708V23.5H137.288ZM159.522 23.88C157.322 23.88 155.502 23.1867 154.062 21.8C152.622 20.4 151.902 18.6 151.902 16.4C151.902 14.1733 152.628 12.38 154.082 11.02C155.548 9.64667 157.382 8.96 159.582 8.96C160.608 8.96 161.602 9.14667 162.562 9.52C163.535 9.88 164.308 10.3867 164.882 11.04L162.562 13.36C162.255 12.9333 161.842 12.6133 161.322 12.4C160.815 12.1733 160.275 12.06 159.702 12.06C158.515 12.06 157.535 12.4733 156.762 13.3C156.002 14.1133 155.622 15.1467 155.622 16.4C155.622 17.68 155.995 18.7267 156.742 19.54C157.488 20.34 158.455 20.74 159.642 20.74C160.962 20.74 161.962 20.26 162.642 19.3L165.022 21.54C163.675 23.1 161.842 23.88 159.522 23.88ZM172.133 23.88V22.16C170.186 22.1333 168.593 21.5733 167.353 20.48C166.113 19.3867 165.493 17.96 165.493 16.2C165.493 14.3467 166.08 12.9067 167.253 11.88C168.426 10.8533 170.053 10.3067 172.133 10.24V8.96H175.553V10.24C177.633 10.3067 179.26 10.8533 180.433 11.88C181.62 12.9067 182.213 14.3467 182.213 16.2C182.213 17.9467 181.593 19.3733 180.353 20.48C179.113 21.5733 177.513 22.1333 175.553 22.16V23.88H172.133ZM172.133 19.26V13.14C171.053 13.2333 170.26 13.5533 169.753 14.1C169.246 14.6333 168.993 15.34 168.993 16.22C168.993 18.02 170.04 19.0333 172.133 19.26ZM175.553 19.26C177.646 19.0333 178.693 18.02 178.693 16.22C178.693 15.34 178.44 14.6333 177.933 14.1C177.426 13.5533 176.633 13.2333 175.553 13.14V19.26ZM184.378 23.5V9.34H193.898V12.24H187.678V14.9H193.558V17.64H187.678V20.58H194.258V23.5H184.378ZM196.526 23.5V9.34H201.726C203.406 9.34 204.746 9.68667 205.746 10.38C206.76 11.06 207.266 12.1667 207.266 13.7C207.266 14.74 206.993 15.6067 206.446 16.3C205.913 16.9933 205.24 17.48 204.426 17.76C203.626 18.0267 202.7 18.16 201.646 18.16H199.946V23.5H196.526ZM199.946 15.44H201.386C203.026 15.44 203.846 14.8667 203.846 13.72C203.846 12.64 203.046 12.1 201.446 12.1H199.946V15.44Z" fill="#fff"/></svg>