<svg width="86" height="23" viewBox="0 0 86 23" fill="none" xmlns="http://www.w3.org/2000/svg"><g clip-path="url(#clip0_84_450)" fill-rule="evenodd" clip-rule="evenodd"><path d="M77.3376 6.9754H78.7751L79.6828 8.02842C80.3192 7.20352 81.3177 6.71772 82.3781 6.7168C84.3565 6.7168 85.7699 8.27536 85.7699 10.1531V15.7444H83.4896V10.9871C83.5107 9.98957 82.7337 9.14656 81.7116 9.0587C80.6894 8.97088 79.7723 9.66824 79.6136 10.654V15.7374H77.3354L77.3376 6.9754Z" fill="#fff"/><path d="M28.4136 6.97484H29.8509L30.7564 8.02786C31.3933 7.20354 32.3912 6.71787 33.4514 6.71623C34.653 6.69604 35.7366 7.41631 36.1536 8.51245C36.731 7.41255 37.8925 6.71916 39.1624 6.71623C41.0069 6.71623 42.1616 8.15365 42.1616 9.95685V15.7368H39.8188V10.9866C39.8188 9.92423 39.3037 9.06223 38.3215 9.06223C37.2723 9.06223 36.4506 9.76114 36.4506 10.7909V15.7368H34.1126V10.9866C34.1126 9.92423 33.6335 9.06223 32.6178 9.06223C32.1128 9.05287 31.6252 9.24138 31.2648 9.58538C30.9043 9.92938 30.7012 10.3999 30.7013 10.8911V15.7368H28.4208V6.97484H28.4136Z" fill="#fff"/><path d="M63.5969 3.22852H65.8776V5.62347H63.5969V3.22852ZM63.5969 15.7367V6.9747H65.8776V15.7367H63.5969Z" fill="#fff"/><path d="M74.8442 15.7367H76.2817H76.2911V6.96771H74.8201L74.2237 7.66661C72.2853 6.31827 69.6132 6.60882 68.0291 8.34026C66.445 10.0717 66.4588 12.6863 68.0609 14.4021C69.6631 16.1177 72.3377 16.3819 74.262 15.0145L74.8442 15.7367ZM69.2452 10.445C69.6236 9.55767 70.5145 8.97962 71.5022 8.98058V8.98292C72.8477 8.98418 73.9386 10.0439 73.9412 11.3522C73.942 12.3128 73.3478 13.1793 72.4353 13.5474C71.5229 13.9154 70.4724 13.7124 69.774 13.0332C69.0753 12.3539 68.8668 11.3323 69.2452 10.445Z" fill="#fff"/><path d="M50.0336 5.63099L50.8097 3.86273C48.7896 3.02102 46.5033 3.02102 44.4832 3.86273L45.2593 5.63099C46.7841 4.99732 48.5088 4.99732 50.0336 5.63099Z" fill="#EA2337"/><path d="M60.8591 15.7367H62.2962H62.3082V3.22852H60.0301V7.52916C58.0482 6.2995 55.4347 6.69774 53.934 8.45807C52.4337 10.2184 52.5158 12.7899 54.1262 14.456C55.7361 16.1222 58.3699 16.3616 60.2696 15.0145L60.8591 15.7367ZM58.974 9.45619C59.8237 10.0729 60.1664 11.1529 59.8215 12.128C59.4844 13.0867 58.5569 13.7302 57.515 13.7285C56.4546 13.7282 55.5159 13.0617 55.193 12.0796C54.8697 11.0976 55.236 10.025 56.0995 9.42616C56.9625 8.82733 58.1243 8.8395 58.974 9.45619Z" fill="#fff"/><path d="M50.9012 8.16428C50.0421 7.31374 48.8708 6.83053 47.6448 6.82129C45.0704 6.82129 42.9832 8.85106 42.9832 11.3549C42.9832 13.8587 45.0704 15.8885 47.6448 15.8885C49.0823 15.8885 50.414 15.4715 51.4202 14.4161C51.2865 14.2735 51.1334 14.1114 50.9743 13.9429C50.6608 13.6104 50.3237 13.2531 50.0644 12.9717C49.2066 13.5868 48.3659 13.9246 47.2303 13.7242C46.3776 13.5619 45.6763 12.9738 45.386 12.1773H52.1486C52.1977 11.9058 52.2226 11.6306 52.2226 11.3549C52.2355 10.1629 51.7599 9.01486 50.9012 8.16428ZM47.6461 8.82584C48.7031 8.82584 49.6349 9.49945 49.9397 10.4836H45.3525C45.6574 9.49945 46.5892 8.82584 47.6461 8.82584Z" fill="#fff"/><path d="M11.6972 5.8708e-06C17.2764 0.000905351 22.078 3.83433 23.1658 9.15605C24.2536 14.4777 21.3246 19.8057 16.17 21.8818C11.0154 23.9578 5.07056 22.2037 1.97103 17.6923C-1.12851 13.1808 -0.519608 7.16826 3.42537 3.33148C5.61761 1.19574 8.59415 -0.00306122 11.6972 5.8708e-06Z" fill="#EA2337"/><path d="M7.02403 12.7435L4.6884 15.0173L1.53345 11.9491L7.02403 6.60938L11.6977 11.1546L16.3715 6.60938L21.862 11.9491L18.7071 15.0173L16.3715 12.7435L14.443 14.6073C13.7151 15.3158 12.7275 15.7138 11.6977 15.7138C10.6679 15.7138 9.68031 15.3158 8.95245 14.6073L7.03602 12.7435H7.02403ZM4.24759 12.9998C4.36259 13.117 4.52177 13.1835 4.6884 13.1838C4.84414 13.1859 4.9943 13.1272 5.1052 13.0207L8.54279 9.67762L7.02403 8.20056L3.1696 11.9491L4.24759 12.9998ZM8.92132 10.903L7.84331 11.9514L9.75973 13.8268C10.8256 14.8606 12.5507 14.8606 13.6166 13.8268L17.8806 9.67996L16.3715 8.20056L11.6977 12.7435L9.78132 10.8797C9.66982 10.7742 9.52005 10.7156 9.36447 10.7167C9.19755 10.7176 9.03828 10.785 8.92368 10.903H8.92132ZM18.2639 10.903L17.1859 11.9514L18.7047 13.4284L20.2235 11.9514L19.1215 10.8797C19.01 10.7742 18.8603 10.7156 18.7047 10.7167C18.539 10.7179 18.3809 10.7843 18.2663 10.9007L18.2639 10.903Z" fill="#fff"/></g><defs><clipPath id="clip0_84_450"><path fill="#fff" d="M0 0H86V23H0z"/></clipPath></defs></svg>